<?xml version="1.0" standalone="no"?>
<!DOCTYPE svg PUBLIC "-//W3C//DTD SVG 20010904//EN"
 "http://www.w3.org/TR/2001/REC-SVG-20010904/DTD/svg10.dtd">
<svg version="1.0" xmlns="http://www.w3.org/2000/svg"
 width="96.000000pt" height="96.000000pt" viewBox="0 0 96.000000 96.000000"
 preserveAspectRatio="xMidYMid meet">
<metadata>
Created by potrace 1.11, written by Peter Selinger 2001-2013
</metadata>
<g transform="translate(0.000000,96.000000) scale(0.100000,-0.100000)"
fill="#000000" stroke="none">
<path d="M312 710 c-13 -6 -32 -20 -43 -33 l-18 -22 -1 28 c0 23 -4 27 -30 27
l-30 0 0 -215 0 -215 30 0 30 0 0 163 c0 157 1 164 23 184 12 11 32 24 45 28
28 8 78 -10 88 -33 4 -10 9 -90 12 -179 l4 -163 29 0 29 0 0 163 c0 148 2 165
20 184 41 44 121 37 140 -12 6 -15 10 -96 10 -181 l0 -154 30 0 30 0 0 167 c0
148 -2 171 -21 210 -16 34 -28 45 -59 54 -54 16 -105 4 -138 -32 l-27 -31 -26
32 c-29 35 -85 48 -127 30z"/>
<path d="M800 680 l0 -30 80 0 80 0 0 30 0 30 -80 0 -80 0 0 -30z"/>
<path d="M928 549 c-16 -20 -28 -39 -28 -42 0 -3 -12 -25 -27 -49 -47 -73 -53
-82 -69 -115 -28 -53 -16 -63 76 -63 l80 0 0 30 c0 29 -1 30 -51 30 l-51 0 16
23 c9 12 19 29 23 37 3 8 19 32 35 52 24 31 29 45 26 85 l-3 48 -27 -36z"/>
</g>
</svg>
